<?xml version="1.0" encoding="UTF-8"?> <svg xmlns="http://www.w3.org/2000/svg" width="154" height="27" viewBox="0 0 154 27" fill="none"><path d="M33.7487 16.84C33.7951 16.6064 33.9119 16.5136 34.0975 16.5136H37.1023C37.3119 16.5136 37.4287 16.6304 37.4047 16.84C37.2415 17.9584 37.9871 18.424 39.4079 18.424C40.8063 18.424 41.4815 18.0272 41.4815 17.2128C41.4815 16.6304 41.1551 16.2576 40.2239 15.792L37.5679 14.488C35.6815 13.5552 34.8655 12.4384 34.8655 10.5056C34.8655 7.64004 37.0079 5.84644 40.6191 5.84644C44.6479 5.84644 46.5583 7.45443 45.9999 10.552C45.9535 10.808 45.8831 10.9008 45.6735 10.9008H42.6223C42.4127 10.9008 42.3199 10.784 42.3423 10.552C42.4591 9.50404 41.7599 9.01444 40.4559 9.01444C39.3375 9.01444 38.6847 9.45604 38.6847 10.1792C38.6847 10.7376 38.9871 11.088 39.8959 11.5536L42.7375 12.9984C44.5551 13.9296 45.3231 15.024 45.3231 16.864C45.3231 20.008 43.1807 21.6624 39.0815 21.6624C34.9599 21.6608 33.0735 20.1248 33.7487 16.84Z" fill="#151515"></path><path d="M46.8399 21.0561L49.1455 6.45128C49.1679 6.26408 49.3087 6.12488 49.5183 6.12488H54.3631C58.0671 6.12488 59.8127 7.26568 59.8127 9.54888C59.8127 11.4593 58.6943 12.8337 56.8319 13.2993V13.3697C58.5087 13.6961 59.3711 14.7681 59.3711 16.4209C59.3711 19.8449 56.9711 21.3825 52.2895 21.3825H47.0959C46.9103 21.3825 46.8159 21.2657 46.8399 21.0561ZM52.9199 18.2849C54.7375 18.2849 55.5759 17.7953 55.5759 16.4209C55.5759 15.4417 54.9471 15.0465 53.3391 15.0465H51.5215L51.0095 18.2849H52.9199ZM53.6415 12.2737C55.0623 12.2737 55.9007 11.7153 55.9007 10.5041C55.9007 9.54888 55.4111 9.22248 54.0143 9.22248H52.4543L51.9663 12.2737H53.6415Z" fill="#151515"></path><path d="M63.3088 21.0561L65.1488 9.43368H61.4688C61.2592 9.43368 61.12 9.34088 61.1664 9.10728L61.5856 6.45128C61.608 6.26408 61.7712 6.12488 61.9344 6.12488H73.1152C73.3248 6.12488 73.464 6.24168 73.4176 6.45128L72.9984 9.10728C72.976 9.29288 72.8128 9.43368 72.6496 9.43368H68.9232L67.0368 21.0561C67.0144 21.2417 66.92 21.3825 66.7104 21.3825H63.6128C63.4016 21.3825 63.2848 21.2417 63.3088 21.0561Z" fill="#151515"></path><path d="M73.3486 17.1201C73.395 16.9329 73.5118 16.8641 73.675 16.8641H75.2126C75.3758 16.8641 75.4926 16.9809 75.4446 17.1441C75.0494 19.1233 76.4238 19.7521 78.3806 19.7521C80.6174 19.7521 81.7806 18.9137 81.7806 17.3521C81.7806 16.2801 81.2686 15.7217 79.8014 15.0225L77.0526 13.7185C75.3982 12.9505 74.6062 11.8561 74.6062 10.1313C74.6062 7.3825 76.7022 5.8689 80.0798 5.8689C83.2238 5.8689 85.3902 7.2433 84.8078 10.2945C84.7614 10.4801 84.691 10.5505 84.5278 10.5505H82.8734C82.7342 10.5505 82.6398 10.4577 82.6638 10.2705C82.8958 8.4305 81.6846 7.7537 79.8686 7.7537C77.9582 7.7537 76.8174 8.5921 76.8174 9.9441C76.8174 10.8529 77.3294 11.5041 78.5406 12.0865L81.1726 13.2977C83.1518 14.2065 84.0142 15.3937 84.0142 17.2113C84.0142 19.9601 81.8942 21.6593 78.2142 21.6593C74.7694 21.6609 72.6494 20.3105 73.3486 17.1201Z" fill="#151515"></path><path d="M86.5329 16.84L86.9985 14.0912C87.4881 11.1328 89.1889 9.71204 92.2865 9.71204C95.3377 9.71204 96.9457 11.32 96.4801 14.464L96.0609 17.1664C95.5953 20.288 93.8705 21.6624 90.7025 21.6624C87.5345 21.6624 86.0193 19.9616 86.5329 16.84ZM93.9633 16.9568L94.3137 14.6976C94.6401 12.5776 93.8705 11.6224 92.1009 11.6224C90.2369 11.6224 89.3985 12.4608 89.0961 14.3952L88.6993 16.7008C88.3729 18.704 89.0257 19.752 90.9121 19.752C92.7281 19.752 93.6369 18.936 93.9633 16.9568Z" fill="#151515"></path><path d="M98.4128 21.1488L100.858 5.70565C100.882 5.56645 100.997 5.47205 101.114 5.47205H102.79C102.954 5.47205 103.024 5.56485 103 5.70565L100.555 21.1488C100.531 21.288 100.438 21.3824 100.299 21.3824H98.6224C98.4592 21.3824 98.3888 21.2896 98.4128 21.1488Z" fill="#151515"></path><path d="M104.374 17.7025L105.563 10.2257C105.586 10.0865 105.702 9.99207 105.843 9.99207H107.498C107.661 9.99207 107.754 10.0865 107.731 10.2257L106.566 17.5169C106.333 18.9617 106.706 19.6065 107.802 19.6065C108.803 19.6065 110.094 18.8369 111.403 17.2465L112.53 10.2257C112.552 10.0865 112.669 9.99207 112.81 9.99207H114.464C114.603 9.99207 114.698 10.0865 114.674 10.2481L113.37 18.5169C113.23 19.3793 113.136 20.2881 113.114 21.1489C113.114 21.2881 113.021 21.3825 112.834 21.3825H111.413C111.25 21.3825 111.157 21.3121 111.157 21.1489C111.134 20.6593 111.157 20.1473 111.227 19.6113C109.76 20.9153 108.432 21.6609 106.826 21.6609C104.771 21.6609 103.979 20.2401 104.374 17.7025Z" fill="#151515"></path><path d="M117.512 17.9121L118.467 11.8561H116.72C116.581 11.8561 116.51 11.7633 116.533 11.6225L116.742 10.2241C116.765 10.0849 116.881 9.99047 117.022 9.99047H118.816L119.245 7.19527C119.315 7.03207 119.408 6.96167 119.547 6.96167H121.121C121.261 6.96167 121.355 7.03207 121.307 7.19527L120.888 9.99047H124.219C124.358 9.99047 124.475 10.0849 124.429 10.2241L124.219 11.6225C124.173 11.7617 124.08 11.8561 123.939 11.8561H120.608L119.653 17.8193C119.419 19.2625 119.769 19.7521 120.934 19.7521C121.563 19.7521 122.238 19.6129 122.728 19.4033C122.891 19.3329 123.008 19.4033 122.961 19.5665L122.752 21.0097C122.728 21.1265 122.657 21.1969 122.518 21.2657C121.912 21.5217 121.166 21.6609 120.235 21.6609C117.838 21.6609 117.117 20.3345 117.512 17.9121Z" fill="#151515"></path><path d="M125.107 21.1489L126.83 10.2241C126.853 10.0849 126.97 9.99046 127.11 9.99046H128.765C128.928 9.99046 129.021 10.0609 128.998 10.2241L127.251 21.1489C127.227 21.2881 127.158 21.3825 126.995 21.3825H125.318C125.154 21.3825 125.083 21.2897 125.107 21.1489ZM126.994 6.80006L127.016 6.54406C127.109 5.68166 127.528 5.21606 128.437 5.21606C129.368 5.21606 129.741 5.72806 129.648 6.54406L129.624 6.80006C129.531 7.68486 129.112 8.15046 128.203 8.15046C127.274 8.15206 126.901 7.63846 126.994 6.80006Z" fill="#151515"></path><path d="M130.954 16.84L131.419 14.0912C131.909 11.1328 133.61 9.71204 136.707 9.71204C139.758 9.71204 141.366 11.32 140.901 14.464L140.482 17.1664C140.016 20.288 138.291 21.6624 135.123 21.6624C131.955 21.6624 130.442 19.9616 130.954 16.84ZM138.384 16.9568L138.734 14.6976C139.061 12.5776 138.291 11.6224 136.522 11.6224C134.658 11.6224 133.819 12.4608 133.517 14.3952L133.12 16.7008C132.794 18.704 133.446 19.752 135.333 19.752C137.149 19.752 138.058 18.936 138.384 16.9568Z" fill="#151515"></path><path d="M142.833 21.1488C142.833 21.1488 144.313 10.9856 144.393 10.248C144.414 10.0624 144.486 9.99202 144.696 9.99202H146.344C146.507 9.99202 146.613 10.0384 146.6 10.2256C146.579 10.5328 146.526 10.68 146.454 11.2432C147.611 10.2656 149.145 9.71362 150.705 9.71362C152.848 9.71362 153.873 11.064 153.454 13.6512L152.267 21.152C152.243 21.2912 152.128 21.3856 152.011 21.3856H150.334C150.171 21.3856 150.102 21.2928 150.125 21.152L151.265 13.8384C151.497 12.3472 150.963 11.6256 149.774 11.6256C148.702 11.6256 147.752 12.2288 146.169 13.5808L144.976 21.1536C144.952 21.2928 144.859 21.3872 144.72 21.3872H143.043C142.88 21.3824 142.809 21.2896 142.833 21.1488Z" fill="#151515"></path><path d="M8.13917 5.31199C5.78557 4.97279 3.28637 5.22399 1.85277 6.81119C0.73437 8.04959 0.26077 12.4336 0.86877 15.1904C1.47677 17.9472 2.91677 19.8896 5.66237 20.6672C10.9744 22.1696 24.3888 17.2096 24.8896 14.4176C25.3744 11.7184 19.8656 6.99999 8.13917 5.31199Z" fill="#FFCC33"></path><path d="M18.5856 1.50081C22.056 2.78241 25.5984 4.89441 27.7248 7.67041C27.1808 6.05441 26.312 4.49121 25.0496 3.17121C23.6224 1.68001 22.0816 0.611213 20.2288 0.644813C19.7056 0.654413 19.0704 0.836813 18.3568 1.15841H18.3552C18.256 1.20961 18.1504 1.26881 18.0464 1.32481C18.2272 1.38401 18.4048 1.43361 18.5856 1.50081Z" fill="#2BA8E0"></path><path d="M28.0112 13.9504C28.4368 9.13443 23.4864 5.15843 17.7712 3.04643C15.6752 2.27203 13.5296 2.13763 11.6624 3.05923C11.5312 3.12483 11.0704 3.42883 10.408 3.97443C21.7488 5.98083 27.1872 10.7488 26.528 14.4176C26.3296 15.5232 25.464 16.5792 23.8816 17.6432C20.4576 19.9472 12.9296 22.5744 7.71521 22.5744C6.68801 22.5744 5.75201 22.472 4.95361 22.2464C3.2848 21.7744 1.96481 20.8912 0.977605 19.6384C0.040005 23.2128 0.156805 26.0064 3.0256 26.7744C6.75841 27.7744 15.5152 24.3808 17.9104 23.232C20.3072 22.0816 27.5936 18.6704 28.0112 13.9504Z" fill="#DD1863"></path></svg> 