<?xml version="1.0" encoding="UTF-8"?> <svg xmlns="http://www.w3.org/2000/svg" width="160" height="32" viewBox="0 0 160 32" fill="none"><path d="M36.7487 18.84C36.7951 18.6064 36.9119 18.5136 37.0975 18.5136H40.1023C40.3119 18.5136 40.4287 18.6304 40.4047 18.84C40.2415 19.9584 40.9871 20.424 42.4079 20.424C43.8063 20.424 44.4815 20.0272 44.4815 19.2128C44.4815 18.6304 44.1551 18.2576 43.2239 17.792L40.5679 16.488C38.6815 15.5552 37.8655 14.4384 37.8655 12.5056C37.8655 9.64001 40.0079 7.84641 43.6191 7.84641C47.6479 7.84641 49.5583 9.4544 48.9999 12.552C48.9535 12.808 48.8831 12.9008 48.6735 12.9008H45.6223C45.4127 12.9008 45.3199 12.784 45.3423 12.552C45.4591 11.504 44.7599 11.0144 43.4559 11.0144C42.3375 11.0144 41.6847 11.456 41.6847 12.1792C41.6847 12.7376 41.9871 13.088 42.8959 13.5536L45.7375 14.9984C47.5551 15.9296 48.3231 17.024 48.3231 18.864C48.3231 22.008 46.1807 23.6624 42.0815 23.6624C37.9599 23.6608 36.0735 22.1248 36.7487 18.84Z" fill="white"></path><path d="M49.8399 23.056L52.1455 8.4512C52.1679 8.264 52.3087 8.1248 52.5183 8.1248H57.3631C61.0671 8.1248 62.8127 9.2656 62.8127 11.5488C62.8127 13.4592 61.6943 14.8336 59.8319 15.2992V15.3696C61.5087 15.696 62.3711 16.768 62.3711 18.4208C62.3711 21.8448 59.9711 23.3824 55.2895 23.3824H50.0959C49.9103 23.3824 49.8159 23.2656 49.8399 23.056ZM55.9199 20.2848C57.7375 20.2848 58.5759 19.7952 58.5759 18.4208C58.5759 17.4416 57.9471 17.0464 56.3391 17.0464H54.5215L54.0095 20.2848H55.9199ZM56.6415 14.2736C58.0623 14.2736 58.9007 13.7152 58.9007 12.504C58.9007 11.5488 58.4111 11.2224 57.0143 11.2224H55.4543L54.9663 14.2736H56.6415Z" fill="white"></path><path d="M66.3088 23.056L68.1488 11.4336H64.4688C64.2592 11.4336 64.12 11.3408 64.1664 11.1072L64.5856 8.4512C64.608 8.264 64.7712 8.1248 64.9344 8.1248H76.1152C76.3248 8.1248 76.464 8.2416 76.4176 8.4512L75.9984 11.1072C75.976 11.2928 75.8128 11.4336 75.6496 11.4336H71.9232L70.0368 23.056C70.0144 23.2416 69.92 23.3824 69.7104 23.3824H66.6128C66.4016 23.3824 66.2848 23.2416 66.3088 23.056Z" fill="white"></path><path d="M76.3486 19.12C76.395 18.9328 76.5118 18.864 76.675 18.864H78.2126C78.3758 18.864 78.4926 18.9808 78.4446 19.144C78.0494 21.1232 79.4238 21.752 81.3806 21.752C83.6174 21.752 84.7806 20.9136 84.7806 19.352C84.7806 18.28 84.2686 17.7216 82.8014 17.0224L80.0526 15.7184C78.3982 14.9504 77.6062 13.856 77.6062 12.1312C77.6062 9.3824 79.7022 7.8688 83.0798 7.8688C86.2238 7.8688 88.3902 9.2432 87.8078 12.2944C87.7614 12.48 87.691 12.5504 87.5278 12.5504H85.8734C85.7342 12.5504 85.6398 12.4576 85.6638 12.2704C85.8958 10.4304 84.6846 9.7536 82.8686 9.7536C80.9582 9.7536 79.8174 10.592 79.8174 11.944C79.8174 12.8528 80.3294 13.504 81.5406 14.0864L84.1726 15.2976C86.1518 16.2064 87.0142 17.3936 87.0142 19.2112C87.0142 21.96 84.8942 23.6592 81.2142 23.6592C77.7694 23.6608 75.6494 22.3104 76.3486 19.12Z" fill="white"></path><path d="M89.5329 18.84L89.9985 16.0912C90.4881 13.1328 92.1889 11.712 95.2865 11.712C98.3377 11.712 99.9457 13.32 99.4801 16.464L99.0609 19.1664C98.5953 22.288 96.8705 23.6624 93.7025 23.6624C90.5345 23.6624 89.0193 21.9616 89.5329 18.84ZM96.9633 18.9568L97.3137 16.6976C97.6401 14.5776 96.8705 13.6224 95.1009 13.6224C93.2369 13.6224 92.3985 14.4608 92.0961 16.3952L91.6993 18.7008C91.3729 20.704 92.0257 21.752 93.9121 21.752C95.7281 21.752 96.6369 20.936 96.9633 18.9568Z" fill="white"></path><path d="M101.413 23.1488L103.858 7.7056C103.882 7.5664 103.997 7.472 104.114 7.472H105.79C105.954 7.472 106.024 7.5648 106 7.7056L103.555 23.1488C103.531 23.288 103.438 23.3824 103.299 23.3824H101.622C101.459 23.3824 101.389 23.2896 101.413 23.1488Z" fill="white"></path><path d="M107.374 19.7024L108.563 12.2256C108.586 12.0864 108.702 11.992 108.843 11.992H110.498C110.661 11.992 110.754 12.0864 110.731 12.2256L109.566 19.5168C109.333 20.9616 109.706 21.6064 110.802 21.6064C111.803 21.6064 113.094 20.8368 114.403 19.2464L115.53 12.2256C115.552 12.0864 115.669 11.992 115.81 11.992H117.464C117.603 11.992 117.698 12.0864 117.674 12.248L116.37 20.5168C116.23 21.3792 116.136 22.288 116.114 23.1488C116.114 23.288 116.021 23.3824 115.834 23.3824H114.413C114.25 23.3824 114.157 23.312 114.157 23.1488C114.134 22.6592 114.157 22.1472 114.227 21.6112C112.76 22.9152 111.432 23.6608 109.826 23.6608C107.771 23.6608 106.979 22.24 107.374 19.7024Z" fill="white"></path><path d="M120.512 19.912L121.467 13.856H119.72C119.581 13.856 119.51 13.7632 119.533 13.6224L119.742 12.224C119.765 12.0848 119.881 11.9904 120.022 11.9904H121.816L122.245 9.19521C122.315 9.03201 122.408 8.96161 122.547 8.96161H124.121C124.261 8.96161 124.355 9.03201 124.307 9.19521L123.888 11.9904H127.219C127.358 11.9904 127.475 12.0848 127.429 12.224L127.219 13.6224C127.173 13.7616 127.08 13.856 126.939 13.856H123.608L122.653 19.8192C122.419 21.2624 122.769 21.752 123.934 21.752C124.563 21.752 125.238 21.6128 125.728 21.4032C125.891 21.3328 126.008 21.4032 125.961 21.5664L125.752 23.0096C125.728 23.1264 125.657 23.1968 125.518 23.2656C124.912 23.5216 124.166 23.6608 123.235 23.6608C120.838 23.6608 120.117 22.3344 120.512 19.912Z" fill="white"></path><path d="M128.107 23.1488L129.83 12.224C129.853 12.0848 129.97 11.9904 130.11 11.9904H131.765C131.928 11.9904 132.021 12.0608 131.998 12.224L130.251 23.1488C130.227 23.288 130.158 23.3824 129.995 23.3824H128.318C128.154 23.3824 128.083 23.2896 128.107 23.1488ZM129.994 8.8L130.016 8.544C130.109 7.6816 130.528 7.216 131.437 7.216C132.368 7.216 132.741 7.728 132.648 8.544L132.624 8.8C132.531 9.6848 132.112 10.1504 131.203 10.1504C130.274 10.152 129.901 9.6384 129.994 8.8Z" fill="white"></path><path d="M133.954 18.84L134.419 16.0912C134.909 13.1328 136.61 11.712 139.707 11.712C142.758 11.712 144.366 13.32 143.901 16.464L143.482 19.1664C143.016 22.288 141.291 23.6624 138.123 23.6624C134.955 23.6624 133.442 21.9616 133.954 18.84ZM141.384 18.9568L141.734 16.6976C142.061 14.5776 141.291 13.6224 139.522 13.6224C137.658 13.6224 136.819 14.4608 136.517 16.3952L136.12 18.7008C135.794 20.704 136.446 21.752 138.333 21.752C140.149 21.752 141.058 20.936 141.384 18.9568Z" fill="white"></path><path d="M145.833 23.1488C145.833 23.1488 147.313 12.9856 147.393 12.248C147.414 12.0624 147.486 11.992 147.696 11.992H149.344C149.507 11.992 149.613 12.0384 149.6 12.2256C149.579 12.5328 149.526 12.68 149.454 13.2432C150.611 12.2656 152.145 11.7136 153.705 11.7136C155.848 11.7136 156.873 13.064 156.454 15.6512L155.267 23.152C155.243 23.2912 155.128 23.3856 155.011 23.3856H153.334C153.171 23.3856 153.102 23.2928 153.125 23.152L154.265 15.8384C154.497 14.3472 153.963 13.6256 152.774 13.6256C151.702 13.6256 150.752 14.2288 149.169 15.5808L147.976 23.1536C147.952 23.2928 147.859 23.3872 147.72 23.3872H146.043C145.88 23.3824 145.809 23.2896 145.833 23.1488Z" fill="white"></path><path d="M11.1392 7.312C8.78557 6.9728 6.28637 7.224 4.85277 8.8112C3.73437 10.0496 3.26077 14.4336 3.86877 17.1904C4.47677 19.9472 5.91677 21.8896 8.66237 22.6672C13.9744 24.1696 27.3888 19.2096 27.8896 16.4176C28.3744 13.7184 22.8656 9 11.1392 7.312Z" fill="#FFCC33"></path><path d="M21.5856 3.5008C25.056 4.7824 28.5984 6.8944 30.7248 9.6704C30.1808 8.0544 29.312 6.4912 28.0496 5.1712C26.6224 3.68 25.0816 2.6112 23.2288 2.6448C22.7056 2.6544 22.0704 2.8368 21.3568 3.1584H21.3552C21.256 3.2096 21.1504 3.2688 21.0464 3.3248C21.2272 3.384 21.4048 3.4336 21.5856 3.5008Z" fill="#2BA8E0"></path><path d="M31.0112 15.9504C31.4368 11.1344 26.4864 7.1584 20.7712 5.0464C18.6752 4.272 16.5296 4.1376 14.6624 5.0592C14.5312 5.1248 14.0704 5.4288 13.408 5.9744C24.7488 7.9808 30.1872 12.7488 29.528 16.4176C29.3296 17.5232 28.464 18.5792 26.8816 19.6432C23.4576 21.9472 15.9296 24.5744 10.7152 24.5744C9.68801 24.5744 8.75201 24.472 7.95361 24.2464C6.2848 23.7744 4.96481 22.8912 3.97761 21.6384C3.04 25.2128 3.1568 28.0064 6.0256 28.7744C9.75841 29.7744 18.5152 26.3808 20.9104 25.232C23.3072 24.0816 30.5936 20.6704 31.0112 15.9504Z" fill="#DD1863"></path></svg> 